<svg xmlns="http://www.w3.org/2000/svg" xmlns:xlink="http://www.w3.org/1999/xlink" viewBox="0 0 229.42511 234.58384"><defs><style>.cls-1,.cls-5{fill:none;}.cls-2{isolation:isolate;}.cls-3{clip-path:url(#clip-path);}.cls-4{fill:#9ebedb;}.cls-5{stroke:#3164b7;stroke-linecap:round;stroke-linejoin:round;stroke-width:2.44582px;}.cls-6{fill:#cff1f7;}.cls-7{fill:#e2fdff;}.cls-8{fill:#a4dbe0;}.cls-9{fill:url(#linear-gradient);}.cls-10{fill:#7fb1db;}.cls-11{fill:url(#linear-gradient-2);}.cls-12{fill:#ffdcc5;}.cls-13{fill:#8baec9;}.cls-14{fill:#fff;}.cls-15{fill:#bed8e8;}.cls-16{fill:#5493cc;}.cls-17{fill:url(#linear-gradient-3);}.cls-18{fill:#5694db;}.cls-19{fill:#3a76d9;}.cls-20{fill:#276ad9;}.cls-21{fill:#ccc;}.cls-22{fill:#f2f2f2;}.cls-23{fill:#ff8630;}.cls-24{opacity:0.5;mix-blend-mode:screen;fill:url(#White_Black);}</style><clipPath id="clip-path" transform="translate(-12.27782 -42.43391)"><ellipse class="cls-1" cx="129.46958" cy="130.92074" rx="129.46958" ry="130.92074"/></clipPath><linearGradient id="linear-gradient" x1="68.35298" y1="120.46608" x2="95.76426" y2="120.46608" gradientUnits="userSpaceOnUse"><stop offset="0" stop-color="#ffd2b3"/><stop offset="1" stop-color="#ff842b"/></linearGradient><linearGradient id="linear-gradient-2" x1="86.95557" y1="170.50092" x2="93.9956" y2="164.22888" xlink:href="#linear-gradient"/><linearGradient id="linear-gradient-3" x1="97.60301" y1="145.46314" x2="87.23496" y2="178.87132" gradientUnits="userSpaceOnUse"><stop offset="0" stop-color="#ffbe8f"/><stop offset="1" stop-color="#ff842b"/></linearGradient><linearGradient id="White_Black" x1="4621.77702" y1="56.08305" x2="4601.47222" y2="83.60359" gradientTransform="translate(-4568.12623)" gradientUnits="userSpaceOnUse"><stop offset="0" stop-color="#fff"/><stop offset="1"/></linearGradient></defs><title>资源 12</title><g class="cls-2"><g id="图层_2" data-name="图层 2"><g id="Layer_1" data-name="Layer 1"><g class="cls-3"><rect class="cls-4" y="179.27335" width="229.42511" height="55.31049"/><line class="cls-5" x1="31.10954" y1="179.27335" x2="50.43219" y2="179.27335"/><line class="cls-5" x1="57.873" y1="179.27335" x2="69.75763" y2="179.27335"/><line class="cls-5" x1="155.8866" y1="179.27335" x2="172.4588" y2="179.27335"/><line class="cls-5" x1="178.67172" y1="179.27335" x2="195.3074" y2="179.27335"/><circle class="cls-6" cx="105.31903" cy="88.48683" r="88.46302"/><path class="cls-7" d="M47.95984,164.02669A88.4765,88.4765,0,0,1,132.35356,43.69887,88.465,88.465,0,1,0,115.723,219.37,88.40522,88.40522,0,0,1,47.95984,164.02669Z" transform="translate(-12.27782 -42.43391)"/><circle class="cls-8" cx="170.42616" cy="47.14897" r="47.12516"/><rect class="cls-9" x="67.05012" y="62.01891" width="84.88768" height="116.89434"/><rect class="cls-10" x="78.97422" y="62.02021" width="84.89001" height="116.89505"/><polyline class="cls-11" points="78.977 155.003 102.887 178.913 78.977 178.913"/><path class="cls-12" d="M88.95081,109.88449c.15624,8.832.22946,17.66407.28992,26.49613l.08838,26.49613-.0869,26.49613L89.13645,202.621l-.18564,13.248-.18563-13.248-.10558-13.24809-.0869-26.49613.08819-26.49613C88.72154,127.54856,88.79457,118.7165,88.95081,109.88449Z" transform="translate(-12.27782 -42.43391)"/><path class="cls-12" d="M85.68683,109.88449c.15624,8.832.22927,17.66407.28992,26.49613l.08838,26.49613L85.978,189.37288,85.87247,202.621l-.18564,13.248-.18564-13.248-.10557-13.24809-.08709-26.49613.08838-26.49613C85.45756,127.54856,85.53059,118.7165,85.68683,109.88449Z" transform="translate(-12.27782 -42.43391)"/><path class="cls-12" d="M82.42285,109.88449c.15623,8.832.22927,17.66407.28991,26.49613l.0882,26.49613-.0869,26.49613L82.60848,202.621l-.18563,13.248-.18564-13.248-.10576-13.24809-.0869-26.49613.08838-26.49613C82.19339,127.54856,82.26661,118.7165,82.42285,109.88449Z" transform="translate(-12.27782 -42.43391)"/><circle class="cls-13" cx="98.89714" cy="68.07456" r="3.31202"/><circle class="cls-13" cx="115.45742" cy="68.07456" r="3.31202"/><circle class="cls-13" cx="132.0177" cy="68.07456" r="3.31202"/><path class="cls-14" d="M139.32205,171.50321a10.297,10.297,0,0,1-4.91113,9.14826,18.52032,18.52032,0,0,1-10.4317,2.76059,38.52189,38.52189,0,0,1-7.92816-.674q-6.77357-1.41228-6.77264-2.50415a2.03623,2.03623,0,0,1,.12791-.57745q.44924-1.18721,1.316-3.56313.25737-1.18719.89909-3.53053a1.01262,1.01262,0,0,1,.963-.80253q-.09686,0,2.87252,1.059a15.20119,15.20119,0,0,0,4.86316,1.05958q6.29021,0,6.29112-4.20514,0-3.37065-5.9701-3.37033-.80346,0-2.11857.06426-1.31634.06458-1.73359.064-1.95837,0-2.15054-.032-1.41228-.16-1.412-1.09126a28.5084,28.5084,0,0,1,.385-6.1629,1.01339,1.01339,0,0,1,1.027-.80253,27.8091,27.8091,0,0,1,3.22612.273,27.63567,27.63567,0,0,0,3.19352.27274,3.1138,3.1138,0,0,0,2.29506-.91476,3.15187,3.15187,0,0,0,.91507-2.32735q0-3.78666-5.52117-3.78728a22.1222,22.1222,0,0,0-6.25915,1.25177,1.47978,1.47978,0,0,1-.289.032q-.417,0-.706-.89878-.06457-1.34816-.19249-3.08129-.03228-.38513-.19248-1.5408a11.45046,11.45046,0,0,1-.12853-1.50852q0-1.701,5.26412-2.63206a40.34214,40.34214,0,0,1,7.0297-.642,18.576,18.576,0,0,1,9.5652,2.40729q4.97478,2.88912,4.97509,7.99243a9.719,9.719,0,0,1-5.32869,8.92349,9.9804,9.9804,0,0,1,4.99169,3.56281A9.48117,9.48117,0,0,1,139.32205,171.50321Z" transform="translate(-12.27782 -42.43391)"/><path class="cls-14" d="M157.77846,180.844a1.52437,1.52437,0,0,1-.54609,1.12354,1.70274,1.70274,0,0,1-1.18751.5135q-1.54049,0-4.62209.032-3.081.03137-4.6221.032-1.18812,0-1.15552-1.027l.032-.353q.44923-12.26122.44955-14.86161v-9.53323q0-.898-.41695-.89878a7.61618,7.61618,0,0,0-1.94207.38528,7.64853,7.64853,0,0,1-1.97405.38528q-.99532,0-.995-1.18781,0-1.0908-.032-3.27409-.03321-2.18206-.0326-3.30607,0-.64156.80254-.96273a18.45514,18.45514,0,0,0,7.41466-5.26412q.54518-.67431.93106-.674a3.275,3.275,0,0,1,.385.064q1.21949.25737,3.62708.80253,1.28313.161,3.75561.57776a.63973.63973,0,0,1,.44954.7063,5.956,5.956,0,0,1-.06457.674q-.35329,2.825-.353,13.83431,0,3.69119.048,11.10632Q157.77877,177.15293,157.77846,180.844Z" transform="translate(-12.27782 -42.43391)"/><rect class="cls-15" x="88.98432" y="82.24993" width="64.87311" height="8.08889" rx="4.04444" ry="4.04444"/><rect class="cls-15" x="90.26215" y="157.90305" width="62.31747" height="3.69201" rx="1.846" ry="1.846"/><path class="cls-16" d="M131.05015,104.45412a29.30019,29.30019,0,0,1,9.35967,3.20357,4.82193,4.82193,0,0,1,7.88178,5.55434,41.19168,41.19168,0,0,1,7.85515,9.957h5.94407a5.5593,5.5593,0,1,1,0,11.11859h-1.25175c4.18772,13.99271,4.917,34.50068-2.42012,64.53491h4.59265a3.36068,3.36068,0,1,1,0,6.72136h-6.32994c-.04364.1605-.09189.32639-.1359.48739H168.225a3.36069,3.36069,0,1,1,0,6.72137H154.62468q-1.24916,4.19139-2.6871,8.59655h24.20447v-116.895Z" transform="translate(-12.27782 -42.43391)"/><rect class="cls-15" x="118.14525" y="165.11213" width="39.64821" height="3.69201" rx="1.846" ry="1.846"/><polyline class="cls-17" points="78.977 155.003 102.887 178.913 102.887 155.003"/><path class="cls-18" d="M136.63335,84.27374A15.52994,15.52994,0,0,0,121.815,104.45282h3.22312a12.504,12.504,0,1,1,21.16033,3.36651,12.55985,12.55985,0,0,1-5.081,3.62994,3.30041,3.30041,0,0,0,2.3898,2.27211,15.52451,15.52451,0,0,0-6.87391-29.44764Z" transform="translate(-12.27782 -42.43391)"/><path class="cls-18" d="M120.06044,84.27374a15.53,15.53,0,0,0-14.81837,20.17908h3.22312a12.504,12.504,0,1,1,21.16033,3.36651,12.55988,12.55988,0,0,1-5.081,3.62994,3.30038,3.30038,0,0,0,2.38979,2.27211,15.52451,15.52451,0,0,0-6.87391-29.44764Z" transform="translate(-12.27782 -42.43391)"/><path class="cls-18" d="M103.531,84.27374a15.52994,15.52994,0,0,0-14.81837,20.17908h3.22312a12.504,12.504,0,1,1,21.16033,3.36651,12.55985,12.55985,0,0,1-5.081,3.62994,3.30041,3.30041,0,0,0,2.3898,2.27211A15.52451,15.52451,0,0,0,103.531,84.27374Z" transform="translate(-12.27782 -42.43391)"/><circle class="cls-19" cx="163.86472" cy="159.09905" r="19.4561"/><path class="cls-20" d="M176.14261,216.04758a19.45538,19.45538,0,0,1-19.29454-16.98537,19.45607,19.45607,0,1,0,38.58889,0A19.45533,19.45533,0,0,1,176.14261,216.04758Z" transform="translate(-12.27782 -42.43391)"/><rect class="cls-21" x="180.46189" y="189.64382" width="1.72038" height="16.48763" rx="0.86019" ry="0.86019" transform="translate(215.10495 -108.9619) rotate(52.38031)"/><path class="cls-21" d="M170.1769,187.28841h0a1.62558,1.62558,0,0,1,1.62558,1.62558v15.40877a1.62558,1.62558,0,0,1-1.62558,1.62558h0a1.62558,1.62558,0,0,1-1.62558-1.62558V188.914a1.62557,1.62557,0,0,1,1.62557-1.62557Z" transform="translate(-101.71727 168.95981) rotate(-52.38051)"/><circle class="cls-21" cx="163.86472" cy="159.09905" r="4.43641"/><circle class="cls-22" cx="163.86472" cy="159.09905" r="2.95278"/><path class="cls-19" d="M34.50378,79.99519a18.62723,18.62723,0,0,0,18.62616,18.6261h24.5039l-8.80671-8.09181-.20846-.18865A18.62746,18.62746,0,1,0,34.50378,79.99519Z" transform="translate(-12.27782 -42.43391)"/><path class="cls-23" d="M28.211,83.89714a18.62723,18.62723,0,0,0,18.62616,18.6261H71.341l-8.80671-8.09181-.20847-.18865A18.62746,18.62746,0,1,0,28.211,83.89714Z" transform="translate(-12.27782 -42.43391)"/><path class="cls-24" d="M52.67518,66.20428c-4.875,2.87927-18.507,12.381-18.09,28.51506l-3.44522-.28791.20847-.18865a18.634,18.634,0,0,1,21.32678-28.0385Z" transform="translate(-12.27782 -42.43391)"/><path class="cls-14" d="M53.28151,90.40939l-.21585-.4778a11.03766,11.03766,0,0,1-.9788-4.54412v-4.774a6.0667,6.0667,0,0,0-5.75539-6.11234,5.97326,5.97326,0,0,0-6.19084,5.96926v4.91711a11.03766,11.03766,0,0,1-.9788,4.54412l-.21585.4778Z" transform="translate(-12.27782 -42.43391)"/><path class="cls-14" d="M43.97376,91.01973c-.00266.04345-.00662.08655-.00662.13066a2.14659,2.14659,0,1,0,4.29318,0c0-.04411-.004-.08721-.00654-.13066Z" transform="translate(-12.27782 -42.43391)"/></g></g></g></g></svg>