<?xml version="1.0" encoding="utf-8"?>
<!-- Generator: Adobe Illustrator 25.0.0, SVG Export Plug-In . SVG Version: 6.00 Build 0)  -->
<svg version="1.1" id="illustration" xmlns="http://www.w3.org/2000/svg" xmlns:xlink="http://www.w3.org/1999/xlink" x="0px"
	 y="0px" viewBox="0 0 1600 1200" style="enable-background:new 0 0 1600 1200;" xml:space="preserve">
<style type="text/css">
	.st0{fill:#F7F7F9;}
	.st1{fill:none;stroke:#000000;stroke-width:2;stroke-miterlimit:10;}
	.st2{opacity:0.5;fill:#CCCDCE;}
	.st3{fill:#FFFFFF;stroke:#000000;stroke-miterlimit:10;}
	.st4{fill:none;stroke:#000000;stroke-miterlimit:10;}
	.st5{fill:none;stroke:#E49948;stroke-width:2;stroke-miterlimit:10;}
	.st6{fill:none;stroke:#3D7CA3;stroke-width:2;stroke-miterlimit:10;}
	.st7{fill:none;stroke:#1B236D;stroke-width:2;stroke-miterlimit:10;}
	.st8{fill:#4F71BA;stroke:#000000;stroke-miterlimit:10;}
	.st9{fill:#F23645;stroke:#000000;stroke-miterlimit:10;}
	.st10{fill:#DE9A46;stroke:#000000;stroke-miterlimit:10;}
	.st11{fill:#FF6666;}
	.st12{fill:none;stroke:#6836C4;stroke-miterlimit:10;}
	.st13{fill:#FFC631;}
	.st14{fill:#24ABFC;}
	.st15{fill:#C4E2FA;}
	.st16{opacity:0.26;fill:#A4A5A5;}
	.st17{fill:none;stroke:#070707;stroke-linecap:round;stroke-miterlimit:10;}
	.st18{fill:none;stroke:#070707;stroke-linecap:round;stroke-linejoin:round;stroke-miterlimit:10;}
	.st19{fill:#4F44FF;}
	.st20{fill:#020202;}
	.st21{fill:none;stroke:#FFFFFF;stroke-miterlimit:10;}
	.st22{fill:#EAF4FE;stroke:#0A0A0A;stroke-miterlimit:10;}
	.st23{fill:#C7E1F8;stroke:#020202;stroke-miterlimit:10;}
	.st24{fill:#FCFFFF;}
	.st25{fill:none;stroke:#92BBF4;stroke-miterlimit:10;}
	.st26{fill:#FFFFFF;stroke:#0A0A0A;stroke-miterlimit:10;}
	.st27{opacity:0.68;fill:#C6E2FA;}
	.st28{fill:none;stroke:#0A0A0A;stroke-miterlimit:10;}
	.st29{fill:#FFFFFF;stroke:#020202;stroke-miterlimit:10;}
	.st30{fill:#05CDCD;}
	.st31{fill:#FFFFFF;stroke:#FFFFFF;stroke-miterlimit:10;}
	.st32{fill:none;stroke:#B1B0B5;stroke-miterlimit:10;}
	.st33{fill:#FFC53B;}
	.st34{fill:#6786E3;}
	.st35{fill:#05CDCD;stroke:#020202;stroke-miterlimit:10;}
	.st36{fill:none;stroke:#020202;stroke-miterlimit:10;}
	.st37{opacity:0.68;fill:#B4B3B8;}
	.st38{fill:#CCCDCE;}
	.st39{fill:#C81733;}
	.st40{opacity:0.28;fill:#3D9585;}
</style>
<g>
	<path id="background" class="st0" d="M346.15,1062.4c-36.17-20.05-54.5-61.69-69.14-100.86
		C184.55,714.22,161.25,415.02,388.63,232.9c87.77-70.31,212.12-116.27,324.61-101.91c20.21,2.58,40.65,7.57,57.47,19.26
		c24.86,17.27,38.79,47.36,43.45,77.62c13.49,87.64-14.99,173.66-30.24,258.96c-11.49,64.26-26.93,185.91,36.22,230.56
		c13.05,9.22,29,13.06,44.69,15.64c99.8,16.4,200.52-20.33,298.72,11.18c124.04,39.8,200.4,185.8,163.91,313.77"/>
	<line class="st1" x1="211.82" y1="1053.44" x2="1435.09" y2="1055.12"/>
	<g id="data_2">
		<path class="st2" d="M316.84,453.52c-0.52,1.43-20.97,31.93-27.28,41.33c-0.98,1.45-3.13,1.78-4.58,0.71l-56.74-42.04H316.84z"/>
		<path class="st2" d="M189.36,455.58l249.76,2.04c1.75,0.01,3-1.51,2.47-3L375,268.52c-0.34-0.95-1.33-1.6-2.44-1.6H137.73
			c-1.67,0-2.89,1.41-2.49,2.86l51.66,184.07C187.18,454.86,188.19,455.57,189.36,455.58z"/>
		<path class="st3" d="M198.13,452.48l249.76,2.01c1.75,0.01,3-1.48,2.47-2.95l-66.58-183.38c-0.34-0.94-1.33-1.57-2.44-1.57H146.5
			c-1.67,0-2.89,1.39-2.49,2.81l51.66,181.37C195.95,451.76,196.96,452.47,198.13,452.48z"/>
		<path class="st3" d="M322.1,453.11c-0.52,1.39-20.97,30.9-27.28,40.01c-0.98,1.41-3.13,1.73-4.58,0.68l-56.74-40.69H322.1z"/>
		<path class="st3" d="M222.38,432.2l186.63,0.11c2.68,0,4.61-2.27,3.85-4.54l-30.71-91.67c-0.5-1.51-2.07-2.54-3.85-2.54
			l-180.07,0.31c-2.58,0-4.49,2.13-3.9,4.35l24.15,91.25C218.9,431.07,220.52,432.2,222.38,432.2z"/>
		<line class="st4" x1="172.31" y1="315.41" x2="244.81" y2="316.51"/>
		<line class="st4" x1="176.03" y1="302.29" x2="223.12" y2="302.83"/>
		<line class="st5" x1="371.01" y1="351.93" x2="341.27" y2="351.93"/>
		<line class="st5" x1="306.11" y1="351.81" x2="326.4" y2="351.46"/>
		<line class="st5" x1="291.7" y1="351.93" x2="222.92" y2="353.02"/>
		<line class="st6" x1="375.35" y1="369.43" x2="320.82" y2="369.97"/>
		<line class="st6" x1="302.85" y1="370.52" x2="229.74" y2="371.07"/>
		<line class="st7" x1="309.36" y1="392.25" x2="236.87" y2="392.25"/>
		<line class="st4" x1="371.56" y1="274.9" x2="360.4" y2="291.85"/>
		<line class="st4" x1="375.89" y1="290.76" x2="357.3" y2="275.99"/>
		<polyline class="st4" points="409.43,316.38 450.32,315.83 463.33,362.32 423.06,362.32 		"/>
		
			<ellipse transform="matrix(0.9785 -0.2061 0.2061 0.9785 -59.2461 98.3348)" class="st4" cx="442.27" cy="333.48" rx="6.17" ry="9.06"/>
		
			<ellipse transform="matrix(0.9725 -0.233 0.233 0.9725 -61.821 49.1348)" class="st8" cx="177.06" cy="286.24" rx="5.38" ry="6.87"/>
		
			<ellipse transform="matrix(0.9725 -0.233 0.233 0.9725 -61.28 53.027)" class="st9" cx="193.81" cy="285.89" rx="5.38" ry="6.87"/>
		
			<ellipse transform="matrix(0.9725 -0.233 0.233 0.9725 -60.6987 57.6046)" class="st10" cx="213.47" cy="285.72" rx="5.38" ry="6.87"/>
	</g>
	<g id="circle">
		<ellipse class="st11" cx="445.41" cy="177.09" rx="23.3" ry="24.57"/>
		<ellipse class="st4" cx="439.19" cy="177.09" rx="23.3" ry="24.57"/>
	</g>
	<g id="shape">
		<ellipse class="st12" cx="1451.39" cy="895.4" rx="27.08" ry="28.52"/>
		<ellipse class="st4" cx="811.86" cy="645.29" rx="10.61" ry="11.82"/>
		<polygon class="st4" points="1022.19,220.93 1021.54,238.82 1020.9,256.7 1006.15,246.36 991.41,236.02 1006.8,228.48 		"/>
		<polygon class="st13" points="129.01,547.49 145.58,553.25 162.15,559.01 148.84,571.32 135.54,583.64 132.27,565.56 		"/>
		<ellipse class="st14" cx="1057.43" cy="737.16" rx="9.47" ry="9.99"/>
		<polygon class="st4" points="221.26,790.53 201.51,759.25 231.36,739.75 251.11,771.04 		"/>
	</g>
	<g id="cup">
		<path class="st3" d="M376.76,1055.77h-40.15c-1.52,0-2.82-0.99-3.1-2.36l-14.02-69.4c-0.36-1.77,1.13-3.41,3.1-3.41h63.81
			c1.9,0,3.37,1.52,3.13,3.25l-9.64,69.4C379.69,1054.69,378.35,1055.77,376.76,1055.77z"/>
		<path class="st15" d="M331.23,1007.75l5.99,35.2c0.26,1.52,1.69,2.65,3.38,2.65h31.53c1.62,0,3.01-1.03,3.34-2.47
			c2.4-10.37,11.06-49.77,3.67-48.08c-3.28,0.75-31.23,6.43-43.35,7.36C332.87,1002.63,330.78,1005.1,331.23,1007.75z"/>
		<path class="st16" d="M337.84,961.94c-1.71-9.27,2.26-18.64,7.16-26.7c4.89-8.06,10.86-15.63,13.84-24.58
			c3.13-9.4,1.34-18.76-4.86-26.27c1.4-0.08,3.06,0.23,3.97,1.66c5.14,8.09,10.64,18.76,6.59,28.47c-2.05,4.91-6.1,9.31-9.06,13.71
			c-3.42,5.08-6.67,10.31-9.08,15.95c-3.94,9.22-4.75,18.73-2.26,28.39C340.32,970.64,338.6,966.12,337.84,961.94z"/>
		<path class="st16" d="M356.26,964.1c0.13-5.93,3.73-11.2,7.73-15.53c4-4.33,8.6-8.23,11.54-13.36c3.09-5.39,3.18-11.39,0.34-16.82
			c0.86,0.13,1.84,0.53,2.21,1.53c2.12,5.65,4.13,12.94,0.44,18.4c-1.87,2.76-4.9,4.95-7.26,7.28c-2.73,2.69-5.37,5.49-7.55,8.66
			c-3.57,5.17-5.26,10.93-4.96,17.21C356.67,969.78,356.2,966.77,356.26,964.1z"/>
		<path class="st17" d="M332.05,1024.78l-6.62-38.86c-0.17-0.53,0.5-1.02,1.39-1.03l18-0.2"/>
		<line class="st18" x1="332.71" y1="1028.39" x2="333.44" y2="1032.84"/>
	</g>
	<g id="girl">
		<polygon class="st3" points="874.34,887.78 947.03,1054.4 847.18,1055.42 791.83,922.82 784.91,905.46 		"/>
		<path class="st19" d="M875.48,887.78c-43.63,10.89-70.75,32.46-84.21,45.98c-36.08-109.38-72.7-240.24-72.7-240.24
			s66.95-7.38,74.94,3.16C798.57,703.35,843.35,810.33,875.48,887.78z"/>
		<path class="st19" d="M613.14,703.33l105.43-9.81c0,0,107.97,202.31,108.97,219.16c1,16.86-65.38,140.04-65.38,140.04
			l-258.19-1.18l63.74-272.68L613.14,703.33z"/>
		<path class="st3" d="M601.08,586.1l12.06,117.23c0,0,34.08,54.75,73.41,44.24c33.31-8.9,29.89-58.06,29.89-58.06l-8.91-63.04
			C707.53,626.46,602.65,566.19,601.08,586.1z"/>
		<path class="st3" d="M603.1,585.72c0,0,30.52,46.61,75.77,48.83c45.25,2.22,75.42-72.14,72.96-102.47s-49.11-105.06-83.84-105.8
			c-34.73-0.74-98.22,48.46-99.27,72.14c-1.05,23.68-3.51,52.16,8.07,64C588.36,574.25,603.1,585.72,603.1,585.72z"/>
		<path class="st20" d="M655.2,444.82c-2.49,28.87-16.04,58.67-40.96,70.91c-1.78,0.87-3.72,1.67-5.65,1.33
			c-1.34-0.23-2.54-0.98-3.71-1.72c-4.04-2.54-8.21-5.03-12.82-6.04c-4.6-1.01-9.78-0.31-13.31,2.97c-2.76,2.57-4.2,6.39-4.95,10.2
			c-3.29,16.85,6.03,34.61,19.88,43.71c4.18,2.75,8.9,4.98,11.05,10.1c1.11,2.64,0.88,5.8-0.92,7.98
			c-3.56,4.29-10.01,1.6-14.46-1.44c-9.37-6.4-18.49-13.7-24.71-23.48c-9.39-14.78-11.12-33.45-11.23-51.24
			c-0.2-32.21,3.81-69,22.47-95.71c17.07-24.43,46.96-34.82,74.9-34.22c25.07,0.54,50.73,9.42,68.26,28.32
			c16.27,17.54,25.66,41.16,31.53,64.57c2.91,11.6,4.96,23.44,6.31,35.35c0.66,5.81,1.11,11.63,1.22,17.49
			c0.12,6.22-1.75,14.03-1.34,20.37c0.01,0.11-0.13,0.13-0.16,0.02c-3.95-19.34-16.71-35.76-31.63-47.88
			c-15.47-12.57-33.37-21.28-50.52-31.12C666.18,460.55,657.14,454.67,655.2,444.82L655.2,444.82z"/>
		
			<ellipse transform="matrix(0.98 -0.1992 0.1992 0.98 -57.6296 123.2411)" class="st20" cx="583.62" cy="348" rx="41.52" ry="47.1"/>
		<path class="st4" d="M603.06,389.52c10.96-1.38,21.39-7.07,28.78-15.72c4.83-5.65,8.36-12.46,10.81-19.62
			c2.78-8.14,4.19-17.14,1.9-25.45"/>
		<path class="st4" d="M595.74,393.34c-14.99,6.6-33.3,3.9-46.01-6.78s-19.27-28.91-16.51-45.79"/>
		<path class="st4" d="M654.88,441.37c0.78,15.75-0.23,31.77-6.92,46.14c-6.83,14.67-18.04,27.99-28.64,39.76"/>
		<path class="st4" d="M583.01,530.79c0,0,0,13.41,14.84,19"/>
		<path class="st21" d="M776.76,797.29l50.78,115.39c0,0-0.31,8.78-3.97,16.5"/>
		<g>
			<path class="st3" d="M836.8,1037.86c-4.83,2.45-16.15-31.7-16.15-31.7s-28.61-38.24-34.57-37.83
				c-5.46,0.38,14.09,49.41,17.5,57.87c0.28,0.69-0.04,1.46-0.71,1.71c-1.57,0.59-4.81,1.75-10.53,3.52
				c-8.82,2.73-12.24-3.38-18,0.2c-5.76,3.58-21.98,0.49-21.98,0.49l-4.91,1.39l-16.79,3.3c0,0-9.25-3.59-15.44-6.34
				c-6.19-2.74-4.42-6.05-4.42-6.05l17.79-3.36l-1.85-27.41l-12.38-5.49c-65.5,28.86-299.56,74.98-325.63,75.88
				c-1.73,0.06-3.03-1.64-2.6-3.41c3.44-14.27,22.43-77.7,38.18-140.63c16.34-10.24,98.81-30.62,115.01-11.56l-8.06,35.34
				c0,0,212.56-38.17,222.51-38.86c9.97-0.7,48.53,36.85,48.53,36.85s32.81,55.94,34.09,60.09
				C837.65,1006.02,841.64,1035.4,836.8,1037.86z"/>
			<polyline class="st3" points="750.6,1032.06 750.91,994.31 744.94,983.66 			"/>
			<polyline class="st3" points="776.74,1030.73 774.68,993.15 769.8,977.39 			"/>
			<line class="st3" x1="728.44" y1="1021.17" x2="728.9" y2="1024.28"/>
		</g>
		<path class="st21" d="M824.34,896.61c0,0,30.67-18.99,43.34-15.6"/>
		<path class="st19" d="M612.4,703.92L570.89,828.3l-24.55,82.22c-65.35-13.01-106.05,1.23-123.17,10.3
			c30.91-94.78,68.82-206.15,75.3-209.77C513.55,702.61,612.4,703.92,612.4,703.92z"/>
		<path class="st21" d="M539.42,909.51c0,0,20.59-79.05,24.3-81.3"/>
		<path class="st21" d="M431.32,909.2c0,0,58.53-22.33,105.71-5.88"/>
		<path class="st21" d="M604.73,710.46c18.58,37.3,58.26,59.26,88.6,48.83c21.64-7.44,29.95-29.67,33.34-55.94"/>
		<path class="st4" d="M533.61,943.33c0,0-23,1.78-38.56,21.03"/>
	</g>
	<g id="laptop">
		<path class="st22" d="M1225.05,825.35l-18.97,208.81c-1.02,11.27-9.85,19.86-20.39,19.86l-264.25-0.09
			c-12.16,0-21.67-11.31-20.44-24.32l19.52-204.89c1.06-11.13,9.7-19.62,20.09-19.77l263.72-3.83
			C1216.56,800.95,1226.24,812.26,1225.05,825.35z"/>
		<path class="st23" d="M1192.42,1076.07l-486.4-2.67c-5.74-0.03-10.37-4.71-10.34-10.45l0-0.28c0.03-5.74,4.71-10.38,10.46-10.35
			l486.4,2.67c5.74,0.03,10.37,4.71,10.34,10.45l0,0.28C1202.84,1071.46,1198.16,1076.1,1192.42,1076.07z"/>
		<path class="st3" d="M884.21,1073.96l-177.46-0.98c-5.72-0.03-10.34-4.69-10.31-10.42l0-0.28c0.03-5.73,4.69-10.34,10.42-10.31
			l177.46,0.98c5.72,0.03,10.34,4.69,10.31,10.41l0,0.28C894.6,1069.37,889.94,1073.99,884.21,1073.96z"/>
		
			<ellipse transform="matrix(0.8802 -0.4746 0.4746 0.8802 -292.5832 625.3852)" class="st24" cx="1092.53" cy="892.27" rx="12.04" ry="4.63"/>
		<line class="st25" x1="728.46" y1="1063.04" x2="797.31" y2="1063.44"/>
		<line class="st26" x1="831.58" y1="1062.12" x2="847.85" y2="1062.23"/>
		<line class="st26" x1="858.35" y1="1062.71" x2="873.63" y2="1062.84"/>
		<path class="st27" d="M1185.69,1054.02l-264.25-0.09c-12.16,0-21.67-11.31-20.44-24.32l19.52-204.89
			c1.06-11.13,9.7-19.62,20.09-19.77l55.91-0.81c15.05,26.18,44.37,80.3,53.13,119.24
			C1061.61,976.56,1107.99,1053.68,1185.69,1054.02z"/>
		<path class="st28" d="M920.73,1025.56l20.48-199.23c0.39-3.77,3.33-6.64,6.86-6.69l79.69-1.16"/>
		
			<ellipse transform="matrix(0.9999 -0.0118 0.0118 0.9999 -10.8512 12.6418)" class="st24" cx="1068.68" cy="928.29" rx="23.73" ry="26.17"/>
	</g>
	<g id="data">
		<path class="st29" d="M388.97,648.97H294.2c-4.44,0-8.04-3.6-8.04-8.04v-56.27c0-4.44,3.6-8.04,8.04-8.04h94.77
			c4.44,0,8.04,3.6,8.04,8.04v56.27C397.01,645.37,393.41,648.97,388.97,648.97z"/>
		<path class="st30" d="M361.64,689.49h-97.76c-5.25,0-9.51-4.26-9.51-9.51v-63.47c0-5.25,4.26-9.51,9.51-9.51h97.76
			c5.25,0,9.51,4.26,9.51,9.51v63.47C371.14,685.24,366.89,689.49,361.64,689.49z"/>
		<polyline class="st21" points="267.93,619.72 267.93,674.6 353.04,674.6 		"/>
		<rect x="275.93" y="644.49" class="st31" width="6.54" height="29.6"/>
		<rect x="291.05" y="636.09" class="st31" width="7.35" height="38"/>
		<rect x="307.39" y="628.89" class="st31" width="8.17" height="45.2"/>
		<rect x="323.33" y="643.69" class="st31" width="8.17" height="30.4"/>
	</g>
	<g id="message">
		<path class="st11" d="M869.97,241.93l-67.4,16.63c-0.91,0.23-1.83-0.34-2.05-1.27l-8.77-36.79c-0.22-0.93,0.34-1.86,1.25-2.09
			l67.4-16.63c0.91-0.23,1.83,0.34,2.05,1.27l8.77,36.79C871.44,240.77,870.88,241.7,869.97,241.93z"/>
		<polyline class="st21" points="792.45,219.64 828.48,227.02 860.26,201.69 		"/>
	</g>
	<g id="wall">
		<rect x="1280.82" y="405.39" class="st32" width="79.01" height="49.88"/>
		<line class="st32" x1="1280.82" y1="455.27" x2="1243.71" y2="455.27"/>
		<line class="st32" x1="1359.84" y1="455.27" x2="1408.92" y2="456.7"/>
		<line class="st32" x1="1290.4" y1="458.12" x2="1290.4" y2="493.75"/>
		<line class="st32" x1="1265.26" y1="498.03" x2="1347.87" y2="498.03"/>
		<line class="st32" x1="1374.2" y1="462.4" x2="1374.2" y2="503.73"/>
	</g>
	<g id="comment">
		<path class="st33" d="M1335.58,715.93h-116.46c-15.79,0-28.59-12.8-28.59-28.59v-0.49c0-15.79,12.8-28.59,28.59-28.59h116.46
			c15.79,0,28.59,12.8,28.59,28.59v0.49C1364.17,703.12,1351.37,715.93,1335.58,715.93z"/>
		<polygon class="st4" points="1263.24,739.76 1241.09,713.78 1264.45,693.17 1286.6,719.15 		"/>
	</g>
	<g id="box">
		<path class="st34" d="M897.24,497.25h-62.09c-1.84,0-3.33-1.49-3.33-3.33v-48.68c0-1.84,1.49-3.33,3.33-3.33h62.09
			c1.84,0,3.33,1.49,3.33,3.33v48.68C900.57,495.77,899.08,497.25,897.24,497.25z"/>
		<path class="st4" d="M899.69,492.74H837.6c-1.84,0-3.33-1.49-3.33-3.33v-48.68c0-1.84,1.49-3.33,3.33-3.33h62.09
			c1.84,0,3.33,1.49,3.33,3.33v48.68C903.02,491.25,901.53,492.74,899.69,492.74z"/>
		<rect x="912.24" y="443.01" class="st35" width="187.89" height="17.72"/>
		<rect x="914.72" y="475.92" class="st36" width="100.79" height="12.66"/>
		<line class="st36" x1="836.33" y1="521.49" x2="953.3" y2="521.49"/>
		<line class="st36" x1="836.33" y1="540.47" x2="927.17" y2="540.47"/>
		<line class="st36" x1="836.33" y1="559.46" x2="896.06" y2="559.46"/>
	</g>
	<g id="callender">
		<path class="st37" d="M1188.96,525.79l0.67,85.59c0.01,0.83-0.6,1.53-1.41,1.62c-7.86,0.88-46.39,4.9-65.03,1.64
			c-0.37-0.06-0.56-0.47-0.4-0.81C1126.65,605.73,1164.45,527.65,1188.96,525.79z"/>
		<path class="st3" d="M1121.44,525.79h67.52c0,0,3.38,65.25-15.19,80.7c0,0-52.33,6.87-59.08,3.43c0,0,5.11-33.22,6.8-40.09
			S1119.75,530.94,1121.44,525.79z"/>
		<ellipse class="st3" cx="1153.43" cy="542.17" rx="4.42" ry="4.67"/>
		<line class="st3" x1="1131.97" y1="563.5" x2="1166.38" y2="563.5"/>
		<line class="st3" x1="1146.72" y1="579.17" x2="1166.05" y2="579.17"/>
		<line class="st3" x1="1130" y1="591.83" x2="1152.61" y2="592.17"/>
	</g>
	<g id="top">
		<path class="st38" d="M1391.26,1073.25c0,2.33-27.18,4.34-47.89,4.67c-2.73,0.04-35.59,0.5-35.79-2.35
			c-0.08-1.2,5.68-2.53,9.61-3.44c9.6-2.21,16.06-2.09,31.78-2.29c15.78-0.2,17.06-0.42,22.54,0
			C1372.92,1069.95,1391.26,1071.34,1391.26,1073.25z"/>
		<path class="st30" d="M1399.75,980.84l-5.67,66.37l-2.01,23.46c-0.11,1.34-1.22,2.37-2.55,2.37h-70.14
			c-1.25,0-2.33-0.92-2.52-2.19l-12.45-80.98l-1.35-8.85c-0.24-1.58,0.95-3,2.52-3h91.63
			C1398.7,978.02,1399.88,979.33,1399.75,980.84z"/>
		<path class="st4" d="M1351.29,977.95c-1.85-17.29-4.42-31.25-6.47-40.92c-2.97-14.03-5.1-20.33-7.69-34
			c-2.89-15.21-4.12-27.8-4.71-36.14c-0.09-0.52-0.37-1.75-1.45-2.91c-0.75-0.81-1.74-1.43-2.88-1.77
			c-12.29-3.65-24.58-7.31-36.87-10.96"/>
		<path class="st4" d="M1332.97,977.79c-0.9-12.02-2.52-25.24-5.2-39.41c-2.43-12.85-5.4-24.67-8.58-35.37
			c-0.11-0.5-0.38-1.4-1.1-2.32c-0.54-0.68-1.23-1.25-2.05-1.67c-5.98-3.06-11.95-6.13-17.93-9.19"/>
		<path class="st4" d="M1366.3,978.4c3.82-17.1,5.3-31.03,5.96-40.41c1.19-16.9,0.2-26.2,2.29-45.2
			c1.29-11.72,3.09-21.17,4.35-27.09c0.99-1.54,2.22-3.16,3.73-4.77c6.5-6.89,14.67-9.6,19.38-10.74"/>
		<path class="st4" d="M1317.74,900.75c2.1-9.29,0.86-19.2-3.49-27.79"/>
		<path class="st4" d="M1324.16,924.41c-0.9,0.75-2.14,1.03-3.34,1.22c-8.91,1.42-18.43-0.78-25.57-5.93"/>
		<path class="st4" d="M1326.54,933.32c3.89-0.98,6.61-4.42,7.65-8.05c1.03-3.62,0.68-7.45,0.31-11.18"/>
		<path class="st4" d="M1309.39,856.56c2.43-6.65-0.2-14.62-6.22-18.86"/>
		<path class="st4" d="M1322.14,860.37c-5.7,7.4-16.5,11.03-25.98,8.74"/>
		<path class="st4" d="M1333.83,879.81c7.48-5.67,11.92-14.65,11.68-23.61"/>
		<path class="st4" d="M1337.08,901.76c-6.09,0.63-12.43-2.59-15.15-7.69"/>
		<path class="st4" d="M1344.47,934.6c10.33-4.94,17.1-15.69,16.68-26.48"/>
		<path class="st4" d="M1340.09,916.9c9.55-4.99,15.46-15.44,14.46-25.58"/>
		<path class="st4" d="M1372.94,926.47c5.33-0.14,10.25-2.97,13.83-6.64c3.58-3.67,6.02-8.16,8.42-12.59"/>
		<path class="st4" d="M1373.8,902.83c-8.32-5.03-14.1-13.53-15.4-22.68"/>
		<path class="st4" d="M1376.48,884.13c10.88-2.25,20.85-8.1,27.72-16.25"/>
		<path class="st4" d="M1379.49,863.85c-3.65-5.85-5.29-12.78-4.62-19.51"/>
		<ellipse class="st39" cx="1302.41" cy="837.05" rx="2.18" ry="2.02"/>
		<ellipse class="st39" cx="1374.72" cy="843.71" rx="2.56" ry="2.26"/>
		<ellipse class="st39" cx="1354.43" cy="891.45" rx="2.3" ry="2.38"/>
		<ellipse class="st39" cx="1294.99" cy="919.81" rx="2.69" ry="2.5"/>
		<ellipse class="st39" cx="1395.19" cy="907.33" rx="2.82" ry="2.62"/>
		<path class="st40" d="M1394.08,1047.21l-2.01,23.46c-0.11,1.34-1.22,2.37-2.55,2.37h-70.14c-1.25,0-2.33-0.92-2.52-2.19
			l-12.45-80.98c17.04,9.96,17.13,33.57,30.41,45.88c7,6.5,17.64,5.92,27.12,5.72C1372.92,1041.24,1384.35,1042.22,1394.08,1047.21z
			"/>
		<line class="st21" x1="1388.12" y1="994.98" x2="1385.58" y2="1063.48"/>
	</g>
</g>
</svg>
