<?xml version="1.0" standalone="no"?><!DOCTYPE svg PUBLIC "-//W3C//DTD SVG 1.1//EN" "http://www.w3.org/Graphics/SVG/1.1/DTD/svg11.dtd"><svg t="1632212825357" class="icon" viewBox="0 0 1024 1024" version="1.1" xmlns="http://www.w3.org/2000/svg" p-id="3120" xmlns:xlink="http://www.w3.org/1999/xlink" width="200" height="200"><defs><style type="text/css"></style></defs><path d="M509.866667 516.181333L688.384 412.416l-0.597333 206.506667-178.517334 103.68 0.597334-206.421334z" fill="#0478ED" p-id="3121"></path><path d="M330.154667 412.416l178.517333-103.765333L688.384 412.416 509.866667 516.181333 330.154667 412.416z" fill="#D9DCE1" p-id="3122"></path><path d="M509.866667 516.181333l-0.597334 206.421334-179.712-103.68 0.597334-206.506667 179.712 103.765333z" fill="#56AAFF" p-id="3123"></path><path d="M240.64 671.317333l178.517333-103.765333-0.597333 206.421333-178.517333 103.765334 0.597333-206.421334z" fill="#0478ED" p-id="3124"></path><path d="M60.928 567.552l178.517333-103.765333 179.712 103.765333-178.517333 103.765333L60.928 567.552z" fill="#D9DCE1" p-id="3125"></path><path d="M240.64 671.317333l-0.597333 206.421334L60.330667 773.973333l0.597333-206.421333 179.712 103.765333z" fill="#56AAFF" p-id="3126"></path><path d="M785.152 662.442667l178.517333-103.765334-0.512 206.506667-178.517333 103.68 0.512-206.421333z" fill="#0478ED" p-id="3127"></path><path d="M605.525333 558.677333l178.517334-103.765333 179.626666 103.765333-178.517333 103.765334-179.626667-103.765334z" fill="#D9DCE1" p-id="3128"></path><path d="M785.152 662.442667l-0.512 206.421333-179.712-103.68 0.597333-206.506667 179.626667 103.765334z" fill="#56AAFF" p-id="3129"></path><path d="M515.925333 817.493333l178.517334-103.68-0.597334 206.421334L515.328 1024l0.597333-206.506667z" fill="#0478ED" p-id="3130"></path><path d="M336.298667 713.728l178.517333-103.68 179.626667 103.765333L515.925333 817.493333 336.298667 713.728z" fill="#D9DCE1" p-id="3131"></path><path d="M515.925333 817.493333l-0.597333 206.506667-179.626667-103.765333 0.597334-206.506667L515.925333 817.493333z" fill="#56AAFF" p-id="3132"></path><path d="M509.866667 207.530667L688.384 103.765333l-0.597333 206.421334-178.517334 103.765333 0.597334-206.421333z" fill="#0478ED" p-id="3133"></path><path d="M330.154667 103.765333L508.672 0 688.384 103.765333 509.866667 207.530667 330.154667 103.765333z" fill="#D9DCE1" p-id="3134"></path><path d="M509.866667 207.530667l-0.597334 206.421333-179.712-103.765333 0.597334-206.421334 179.712 103.765334z" fill="#56AAFF" p-id="3135"></path><path d="M240.64 362.581333l178.517333-103.68-0.597333 206.421334-178.517333 103.765333 0.597333-206.506667z" fill="#0478ED" p-id="3136"></path><path d="M60.928 258.816l178.517333-103.68 179.712 103.765333-178.517333 103.68L60.928 258.816z" fill="#D9DCE1" p-id="3137"></path><path d="M240.64 362.581333l-0.597333 206.506667L60.330667 465.322667l0.597333-206.506667 179.712 103.765333z" fill="#56AAFF" p-id="3138"></path><path d="M785.152 353.706667l178.517333-103.68-0.512 206.421333-178.517333 103.765333 0.512-206.506666z" fill="#0478ED" p-id="3139"></path><path d="M605.525333 250.026667l178.517334-103.765334 179.626666 103.765334-178.517333 103.68L605.525333 250.026667z" fill="#D9DCE1" p-id="3140"></path><path d="M785.152 353.706667l-0.512 206.506666-179.712-103.765333 0.597333-206.421333 179.626667 103.68z" fill="#56AAFF" p-id="3141"></path><path d="M515.925333 508.842667l178.517334-103.765334-0.597334 206.506667-178.517333 103.765333 0.597333-206.506666z" fill="#0478ED" p-id="3142"></path><path d="M336.298667 405.077333l178.517333-103.68 179.626667 103.68-178.517334 103.765334-179.626666-103.765334z" fill="#D9DCE1" p-id="3143"></path><path d="M515.925333 508.842667l-0.597333 206.506666-179.626667-103.765333 0.597334-206.506667 179.626666 103.765334z" fill="#56AAFF" p-id="3144"></path></svg>