<svg xmlns="http://www.w3.org/2000/svg" xmlns:xlink="http://www.w3.org/1999/xlink" viewBox="0 0 229.42511 222.95265"><defs><style>.cls-1,.cls-8{fill:none;}.cls-2{isolation:isolate;}.cls-3{clip-path:url(#clip-path);}.cls-4{fill:#cff1f7;}.cls-5{fill:#e2fdff;}.cls-6{fill:#a4dbe0;}.cls-7{fill:#9ebedb;}.cls-8{stroke:#3164b7;stroke-linecap:round;stroke-linejoin:round;stroke-width:2.44582px;}.cls-9{fill:#3a76d9;}.cls-10{fill:url(#linear-gradient);}.cls-11{fill:url(#linear-gradient-2);}.cls-12{fill:url(#linear-gradient-3);}.cls-13{fill:#cee0eb;}.cls-14{fill:#a1c5db;}.cls-15{fill:#fcb9a6;}.cls-16{fill:#ed967e;}.cls-17{fill:#ff8630;}.cls-18{opacity:0.5;mix-blend-mode:screen;fill:url(#White_Black);}.cls-19{fill:#fff;}</style><clipPath id="clip-path" transform="translate(-10.51729 -42.43391)"><ellipse class="cls-1" cx="129.46958" cy="130.92074" rx="129.46958" ry="130.92074"/></clipPath><linearGradient id="linear-gradient" x1="152.22619" y1="76.71363" x2="143.43605" y2="103.49289" gradientUnits="userSpaceOnUse"><stop offset="0" stop-color="#ffbe8f"/><stop offset="1" stop-color="#ff842b"/></linearGradient><linearGradient id="linear-gradient-2" x1="173.9999" y1="73.5816" x2="133.54058" y2="118.78443" gradientUnits="userSpaceOnUse"><stop offset="0" stop-color="#ffd2b3"/><stop offset="1" stop-color="#ff842b"/></linearGradient><linearGradient id="linear-gradient-3" x1="164.55951" y1="58.59281" x2="178.63385" y2="74.26047" gradientUnits="userSpaceOnUse"><stop offset="0" stop-color="#314cb7"/><stop offset="1" stop-color="#689aed"/></linearGradient><linearGradient id="White_Black" x1="79.08224" y1="161.43131" x2="57.11319" y2="191.20754" gradientTransform="translate(4.34778)" gradientUnits="userSpaceOnUse"><stop offset="0" stop-color="#fff"/><stop offset="1"/></linearGradient></defs><title>资源 4</title><g class="cls-2"><g id="图层_2" data-name="图层 2"><g id="Layer_1" data-name="Layer 1"><g class="cls-3"><circle class="cls-4" cx="107.07956" cy="88.48683" r="88.46302"/><path class="cls-5" d="M47.95984,164.02669A88.4765,88.4765,0,0,1,132.35356,43.69887,88.465,88.465,0,1,0,115.723,219.37,88.40522,88.40522,0,0,1,47.95984,164.02669Z" transform="translate(-10.51729 -42.43391)"/><circle class="cls-6" cx="172.1867" cy="47.14897" r="47.12516"/><rect class="cls-7" y="167.64217" width="229.42511" height="55.31049"/><line class="cls-8" x1="31.10954" y1="167.64217" x2="50.43219" y2="167.64217"/><line class="cls-8" x1="57.873" y1="167.64217" x2="69.75763" y2="167.64217"/><line class="cls-8" x1="155.8866" y1="167.64217" x2="172.4588" y2="167.64217"/><line class="cls-8" x1="178.67172" y1="167.64217" x2="195.3074" y2="167.64217"/><path class="cls-9" d="M187.78542,205.65976l-81.81089,5.229,8.2189-69.9607a6.27074,6.27074,0,0,1,6.22791-5.53909h76.34121a6.27074,6.27074,0,0,1,6.2279,7.00238Z" transform="translate(-10.51729 -42.43391)"/><rect class="cls-10" x="93.72776" y="94.01635" width="83.54038" height="67.32013"/><rect class="cls-11" x="87.19855" y="90.23221" width="83.54038" height="67.32013"/><path class="cls-12" d="M169.4478,49.89019h0a8.4492,8.4492,0,0,1,8.4492,8.4492v14.628a0,0,0,0,1,0,0H160.99859a0,0,0,0,1,0,0v-14.628A8.4492,8.4492,0,0,1,169.4478,49.89019Z"/><path class="cls-13" d="M179.95835,92.32911c-.08878,0-7.4747.02416-8.44226,9.49048V198.0148H94.2938V114.35c0-12.16755,8.76471-22.02088,19.59387-22.02088Z" transform="translate(-10.51729 -42.43391)"/><rect class="cls-14" x="96.6378" y="85.87272" width="48.59631" height="3.78414" rx="1.89207" ry="1.89207"/><rect class="cls-14" x="96.6378" y="77.15374" width="48.59631" height="3.78414" rx="1.89207" ry="1.89207"/><rect class="cls-14" x="96.6378" y="68.43475" width="48.59631" height="3.78414" rx="1.89207" ry="1.89207"/><rect class="cls-14" x="96.6378" y="94.59171" width="48.59631" height="3.78414" rx="1.89207" ry="1.89207"/><rect class="cls-14" x="96.6378" y="107.67018" width="48.59631" height="3.78414" rx="1.89207" ry="1.89207"/><path class="cls-7" d="M179.9614,92.32508c-.09417,0-7.4787.03141-8.44516,9.49788V156.7361H160.73V116.5293c0-21.11683,10.78622-24.20422,10.78622-24.20422Z" transform="translate(-10.51729 -42.43391)"/><path class="cls-7" d="M171.51609,148.19166V198.0148H94.2938V134.52435a16.35443,16.35443,0,0,1,11.07091,11.2967l.14508.52413a.15733.15733,0,0,0,.15316.11285h58.76546A15.37492,15.37492,0,0,1,171.51609,148.19166Z" transform="translate(-10.51729 -42.43391)"/><path class="cls-15" d="M181.31293,210.79517H98.04316a14.85494,14.85494,0,0,1-14.32044-10.9016l-16.062-58.11225a3.08021,3.08021,0,0,1,2.96725-3.91068H89.63319a12.29041,12.29041,0,0,1,11.84495,9.02284l.14508.52409a4.19524,4.19524,0,0,0,4.03973,3.07211h58.76546a11.44588,11.44588,0,0,1,11.03055,8.39393l12.08689,43.71922A6.46507,6.46507,0,0,1,181.31293,210.79517Z" transform="translate(-10.51729 -42.43391)"/><path class="cls-16" d="M181.31293,210.79517h-22.5934l5.70888-60.30549a11.44588,11.44588,0,0,1,11.03055,8.39393l12.08689,43.71922A6.46507,6.46507,0,0,1,181.31293,210.79517Z" transform="translate(-10.51729 -42.43391)"/><path class="cls-9" d="M62.71365,187.30338a20.154,20.154,0,0,0,20.15283,20.15277h26.51234l-9.52854-8.75505-.22555-.20411a20.15424,20.15424,0,1,0-36.91108-11.19361Z" transform="translate(-10.51729 -42.43391)"/><path class="cls-17" d="M55.90506,191.52515a20.154,20.154,0,0,0,20.15283,20.15277h26.51234l-9.52854-8.75505-.22555-.20411a20.15424,20.15424,0,1,0-36.91108-11.19361Z" transform="translate(-10.51729 -42.43391)"/><path class="cls-18" d="M82.37445,172.38211c-5.27458,3.11527-20.02393,13.3958-19.57276,30.85227l-3.7276-.31151.22555-.20411a20.16134,20.16134,0,0,1,23.07481-30.33665Z" transform="translate(-10.51729 -42.43391)"/><path class="cls-19" d="M82.0365,184.02043l7.05728.93455a1.44572,1.44572,0,0,1,.83235,2.45563l-5.03452,5.03312a1.44568,1.44568,0,0,0-.39958,1.2848l1.292,7.00067a1.44572,1.44572,0,0,1-2.07823,1.55044l-6.34253-3.2328a1.44573,1.44573,0,0,0-1.3454.017L69.7591,202.456a1.44571,1.44571,0,0,1-2.11676-1.4974l1.11462-7.0311a1.44571,1.44571,0,0,0-.43193-1.27429l-5.16015-4.90423a1.44572,1.44572,0,0,1,.77-2.47589l7.0314-1.11266a1.4457,1.4457,0,0,0,1.07845-.80457l3.06963-6.42308A1.44573,1.44573,0,0,1,77.707,176.9l3.231,6.34344A1.44571,1.44571,0,0,0,82.0365,184.02043Z" transform="translate(-10.51729 -42.43391)"/></g></g></g></g></svg>