<?xml version="1.0" encoding="utf-8"?>
<!-- Generator: Adobe Illustrator 25.0.0, SVG Export Plug-In . SVG Version: 6.00 Build 0)  -->
<svg version="1.1" id="illustration" xmlns="http://www.w3.org/2000/svg" xmlns:xlink="http://www.w3.org/1999/xlink" x="0px"
	 y="0px" viewBox="0 0 1600 1200" style="enable-background:new 0 0 1600 1200;" xml:space="preserve">
<style type="text/css">
	.st0{fill:#EDF1FC;}
	.st1{fill:#FFFFFF;stroke:#070707;stroke-miterlimit:10;}
	.st2{fill:#FFFFFF;stroke:#000000;stroke-miterlimit:10;}
	.st3{fill:#E5F1F9;stroke:#141414;stroke-miterlimit:10;}
	.st4{fill:#F9C756;}
	.st5{fill:#05CDCD;}
	.st6{fill:#05CDCD;stroke:#050505;stroke-miterlimit:10;}
	.st7{fill:#FFFFFF;stroke:#020202;stroke-miterlimit:10;}
	.st8{fill:none;stroke:#020202;stroke-miterlimit:10;}
	.st9{fill:none;stroke:#050505;stroke-miterlimit:10;}
	.st10{opacity:0.82;}
	.st11{fill:none;stroke:#000000;stroke-miterlimit:10;}
	.st12{fill:#ED1E79;}
	.st13{fill:#39B54A;}
	.st14{fill:#FE6666;}
	.st15{opacity:0.1;fill:#000033;}
	.st16{fill:#FF6666;}
	.st17{fill:#DED8FA;}
	.st18{fill:#E5F1F9;}
	.st19{fill:#FBB03B;}
	.st20{fill:none;stroke:#E0E2E2;stroke-miterlimit:10;}
	.st21{fill:#BDCDD6;}
	.st22{fill:#0C0C4F;stroke:#0C0C4F;stroke-miterlimit:10;}
	.st23{fill:#05D3AB;}
	.st24{stroke:#000000;stroke-miterlimit:10;}
	.st25{fill:#05D3AB;stroke:#050505;stroke-miterlimit:10;}
	.st26{fill:none;stroke:#070707;stroke-miterlimit:10;}
	.st27{stroke:#020202;stroke-miterlimit:10;}
	.st28{fill:#0C0C0C;stroke:#000000;stroke-miterlimit:10;}
	.st29{fill:#150F60;}
	.st30{fill:#070707;stroke:#000000;stroke-miterlimit:10;}
	.st31{fill:#4F47FD;}
	.st32{fill:none;stroke:#03082B;stroke-miterlimit:10;}
	.st33{fill:none;stroke:#FFFFFF;stroke-miterlimit:10;}
	.st34{fill:#0D005F;}
	.st35{fill:#356EF2;}
	.st36{fill:#2A68F1;}
	.st37{fill:#09138E;}
</style>
<g id="background_1_">
	<path class="st0" d="M1273.05,227.84v629.58c0,16.05-13.01,29.06-29.05,29.06H315.76c-14.28,0-26.15-10.3-28.59-23.87
		c-0.31-1.68-0.47-3.42-0.47-5.19V227.84c0-1.77,0.16-3.51,0.47-5.19c2.44-13.57,14.31-23.87,28.59-23.87H1244
		C1260.04,198.78,1273.05,211.79,1273.05,227.84z"/>
</g>
<g id="page_1_">
	<polygon class="st1" points="549.66,173.95 549.66,266.19 448.99,266.19 448.99,148.88 521.06,148.88 	"/>
	<path class="st2" d="M520.86,175.02l-0.23-25.17c0-0.13,0.18-0.2,0.28-0.1l28.6,24.97c0.1,0.09,0.03,0.25-0.12,0.25l-28.37,0.2
		C520.94,175.17,520.86,175.11,520.86,175.02z"/>
</g>
<g id="memore">
	<rect x="536.34" y="780" class="st2" width="584.87" height="106.48"/>
	<path class="st3" d="M1121.21,824.37v62.11H460.06v-98.14c0-8.15,6.18-14.77,13.82-14.77h62.47c7.63,0,13.82,6.62,13.82,14.77v5.78
		h542.75C1108.55,794.12,1121.21,807.67,1121.21,824.37z"/>
</g>
<g id="box_7">
	<rect x="927.99" y="669.11" class="st4" width="43.09" height="37.62"/>
	<rect x="928.29" y="722.88" class="st5" width="43.09" height="37.62"/>
	<rect x="974.85" y="667.9" class="st6" width="90.02" height="16.83"/>
	<rect x="974.85" y="692.65" class="st7" width="200.15" height="9.9"/>
	<rect x="925.29" y="719.23" class="st8" width="43.09" height="37.62"/>
	<rect x="974.7" y="720.29" class="st4" width="90.02" height="16.83"/>
	<rect x="974.7" y="745.04" class="st7" width="200.15" height="9.9"/>
	<rect x="925.44" y="666.83" class="st8" width="43.09" height="37.62"/>
</g>
<g id="chat">
	<path class="st2" d="M282.23,273.93h-83.64c-6.11,0-11.05-4.95-11.05-11.05v-17.5c0-6.11,4.95-11.05,11.05-11.05h83.64
		c6.11,0,11.05,4.95,11.05,11.05v17.5C293.28,268.98,288.34,273.93,282.23,273.93z"/>
	<g id="round_1_">
		<ellipse class="st9" cx="212.33" cy="254.67" rx="3.22" ry="3.23"/>
		<ellipse class="st9" cx="232.34" cy="254.67" rx="3.22" ry="3.23"/>
		<ellipse class="st9" cx="251.11" cy="254.67" rx="3.4" ry="3.23"/>
		<circle class="st9" cx="268.45" cy="254.67" r="3.57"/>
	</g>
</g>
<g id="box_4">
	<path class="st2" d="M1341.37,563.34h-167.5c-2.48,0-4.5-2.01-4.5-4.5v-50.22c0-2.48,2.01-4.5,4.5-4.5h167.5
		c2.48,0,4.5,2.01,4.5,4.5v50.22C1345.87,561.33,1343.86,563.34,1341.37,563.34z"/>
	<line class="st2" x1="1189.6" y1="517.8" x2="1320.91" y2="518.22"/>
	<line class="st2" x1="1189.6" y1="529.55" x2="1319.7" y2="529.55"/>
	<line class="st2" x1="1190.41" y1="540.46" x2="1318.48" y2="540.46"/>
	<line class="st2" x1="1191.62" y1="550.53" x2="1317.27" y2="550.53"/>
</g>
<g id="round" class="st10">
	<path class="st11" d="M325.7,361.49c1.9,3.69,4.6,7.9,8.99,8.1c4.81,0.22,7.98-4.49,9.84-8.62c1.86-4.13,4.37-8.97,9.15-9.54
		c5.13-0.61,8.95,4.13,11.53,8.29s6.3,8.93,11.45,8.44c3.96-0.38,6.68-3.82,8.44-7.13c1.76-3.31,3.28-7.03,6.61-9.05
		c3.33-2.02,9.09-0.81,9.4,2.87"/>
	<polygon class="st12" points="597.32,655.21 605.67,687.86 650.77,679.88 	"/>
	<polygon class="st11" points="592.45,657.34 600.8,689.99 645.9,682.01 	"/>
	<polygon class="st13" points="931.1,970.7 961.78,966.69 956.2,948.95 	"/>
	<path class="st11" d="M1357.47,776.62c1.19,3.86,2.42,7.82,4.76,10.94s6.06,5.25,9.56,4.28c5.74-1.59,7.57-9.7,11.73-14.46
		c4.62-5.3,12.83-5.88,18-1.26c2.45,2.18,4.15,5.25,6.45,7.64s5.64,4.09,8.5,2.69c4.94-2.42,5.55-12.39,10.93-12.47"/>
	<g id="angle_1_">
		<polygon class="st14" points="1412.39,194.66 1389.69,175.25 1408.15,153.3 1430.86,172.71 		"/>
		<polygon class="st8" points="1405.99,196.28 1383.28,176.87 1401.74,154.92 1424.45,174.33 		"/>
		<polygon class="st5" points="230.36,923.63 243.74,931.45 257.12,939.27 243.07,947.03 229.02,954.78 229.69,939.2 		"/>
		<polygon class="st7" points="1421.95,485.65 1422.96,498.88 1423.97,512.11 1412,506.22 1400.03,500.33 1410.99,492.99 		"/>
		<ellipse class="st15" cx="409.34" cy="145.99" rx="8.57" ry="8.79"/>
		<ellipse class="st7" cx="868.56" cy="115.84" rx="5.52" ry="5.56"/>
		<ellipse class="st16" cx="221.01" cy="615.99" rx="7.68" ry="7.57"/>
		<polygon class="st8" points="226.25,929.27 239.63,937.09 253.01,944.92 238.95,952.67 224.9,960.42 225.57,944.85 		"/>
	</g>
	<ellipse class="st17" cx="792.28" cy="632.03" rx="8.44" ry="8.82"/>
	<ellipse class="st11" cx="221.22" cy="480.44" rx="4.22" ry="4.41"/>
	<ellipse class="st11" cx="391" cy="497.42" rx="3.9" ry="3.78"/>
	<ellipse class="st11" cx="436.51" cy="565.35" rx="4.87" ry="5.04"/>
	<ellipse class="st11" cx="449.2" cy="404.28" rx="4.87" ry="5.04"/>
	<ellipse class="st11" cx="1012.54" cy="710.03" rx="4.22" ry="4.1"/>
	<ellipse class="st11" cx="1155.4" cy="220.25" rx="4.87" ry="5.04"/>
	<ellipse class="st11" cx="947.6" cy="230.31" rx="4.22" ry="4.1"/>
	<ellipse class="st11" cx="1333.3" cy="643.95" rx="4.22" ry="4.1"/>
	<ellipse class="st5" cx="1030.67" cy="249" rx="6.12" ry="6.82"/>
	<ellipse class="st11" cx="906.4" cy="476.18" rx="5.21" ry="5.21"/>
	<ellipse class="st11" cx="561.59" cy="941.94" rx="4.11" ry="4.17"/>
	<ellipse class="st11" cx="1351.24" cy="899.53" rx="4.11" ry="4.17"/>
	<ellipse class="st11" cx="252.23" cy="816.14" rx="4.55" ry="4.73"/>
</g>
<g id="page">
	<rect x="585.34" y="197.04" class="st2" width="387.44" height="288.18"/>
	<rect x="586.2" y="496.94" class="st2" width="388.03" height="90.4"/>
	<path class="st18" d="M869.37,341.92c0,22.42-8.17,42.93-21.69,58.71c-16.56,19.34-41.16,31.6-68.62,31.6
		c-24.56,0-46.84-9.81-63.11-25.72c-16.78-16.39-27.2-39.27-27.2-64.59c0-49.88,40.43-90.31,90.31-90.31
		S869.37,292.04,869.37,341.92z"/>
	<ellipse class="st19" cx="781.66" cy="306.94" rx="23.61" ry="23.78"/>
	<path class="st19" d="M847.68,400.41v0.22c-16.56,19.34-41.16,31.6-68.62,31.6c-24.56,0-46.84-9.81-63.11-25.72
		c-0.2-2.01-0.3-4.04-0.3-6.1c0-35.21,29.56-63.75,66.01-63.75C818.12,336.66,847.68,365.2,847.68,400.41z"/>
	<line class="st20" x1="785.25" y1="514.61" x2="948.36" y2="515.32"/>
	<path class="st20" d="M805.64,535.71c4.22,0,137.8,0.7,137.8,0.7"/>
</g>
<g id="card">
	<path class="st2" d="M462.87,420.25v142.47c0,10.01-7.91,18.12-17.65,18.12H189.3c-9.74,0-17.64-8.11-17.64-18.12V420.25
		c0-10.01,7.9-18.12,17.64-18.12h255.92C454.96,402.13,462.87,410.24,462.87,420.25z"/>
	<rect x="190.02" y="422" class="st21" width="110.54" height="5.66"/>
	<rect x="190.02" y="437.69" class="st21" width="73.39" height="4.77"/>
</g>
<g id="boy">
	<g>
		<path class="st7" d="M583.67,412.41l15.14-9.94c1.14-0.75,1.81-2.03,1.78-3.4c-0.18-7.63-0.43-32.65,3.84-32.65
			c4.09,0,9.85,15.2,11.86,20.88c0.46,1.29,1.62,2.18,2.98,2.27l14.2,1.01c1.89,0.14,3.51,1.42,4.07,3.24
			c2.09,6.8,6.13,23.72-0.71,36.26c-0.84,1.54-2.1,2.82-3.64,3.66l-4.17,2.31c-1.69,0.93-3.58,1.44-5.5,1.49l-27.08,0.59
			c-1.33,0.03-2.61,0.57-3.56,1.51l-10.47,10.38L583.67,412.41z"/>
		<path class="st11" d="M609.14,399.53c-1.16,1.46-1.85,3.28-1.94,5.15c-0.03,0.59,0,1.2,0.24,1.73c0.34,0.77,0.96,1.55,1.78,1.71
			c4.19,0.85,7.31,1.08,12.85,0.59c4.38-0.39,9.13-1.78,13.17-3.94c1.43-0.76,3.16-1.95,4.45-2.87"/>
		<path class="st11" d="M609.98,408.2c-1.66,1.08-3.88,4.12-3.81,6.11c0.09,2.38,2.37,4.05,4.59,4.88
			c7.19,2.66,15.17,0.2,22.29-2.63c2.83-1.13,6.42-2.28,7.72-5.04"/>
		<path class="st11" d="M613.17,419.94c-1.88,0.38-2.87,3.11-2.53,5.01c0.34,1.9,1.89,3.41,3.66,4.15s3.75,0.81,5.66,0.7
			c6.96-0.39,14.33-2.81,19.76-7.21"/>
		<path class="st11" d="M619.98,429.9c-1.38,0.25-2.22,1.73-2.2,3.14c0.02,1.68,1.92,2.59,3.52,3.11c1.61,0.52,3.22,1.25,4.89,0.98"
			/>
		<path class="st11" d="M609.03,399.54c0.67-0.49,8.8-2.33,13.38-2.72c0.7-0.06,1.58-0.27,1.67-0.97c0.07-0.49-0.33-0.91-0.72-1.22
			c-2.11-1.7-3.73-2.89-5.14-5.22"/>
	</g>
	<path class="st22" d="M301.06,1036.42l-0.72,48.23l86.52,3.74c0,0,9.63-10.01-24.28-22.88c0,0-16.16-2.79-20.96-24.03l-3.61-6.09
		l-34.43-2.41L301.06,1036.42z"/>
	<path class="st22" d="M414.47,1037.41l0.23,48.24l86.57,2.02c0,0,9.43-10.2-24.72-22.4c0,0-16.21-2.47-21.43-23.61l-3.72-6.01
		l-34.47-1.72L414.47,1037.41z"/>
	<path class="st2" d="M447.47,562.77l28.31,216.25l-17.17,258.62c0,0-23.28,12.73-46.14,0c0,0,3.22-31.78-4.29-30.68
		s2.15-15.34,2.15-19.73c0-4.38-15.02-199.45-15.02-199.45l-9.66-42.74l-6.44-181.91C379.2,563.14,442.76,552.55,447.47,562.77z"/>
	<path class="st2" d="M308.58,563.96c0,0-9.25,433.08-9.25,439.74s8.42,3.33,6.32,7.77c-2.11,4.44-18.95,12.21-10.53,14.42
		c8.42,2.22,4.21,2.22,4.21,2.22v8.88c0,0,27.37,12.21,42.11,1.11l87.38-473.79L308.58,563.96z"/>
	<path class="st9" d="M395.3,787.79c0,0-0.93-9.46,14.85-26.72"/>
	<path class="st23" d="M411.89,334.48l10.23,0.64c1.06,0.07,2.03,0.63,2.62,1.52l63.86,96.82l93.62-24.72
		c0.73-0.19,1.46,0.3,1.55,1.05l5.26,41.39c0.13,1.06-0.42,2.09-1.39,2.54L474.76,507.3l-15.73-5.57v73.9
		c0,1.57-1.15,2.91-2.69,3.11c-23.23,3.14-41.85,2.23-54.74,0.76c-27.03-3.07-41.5-10-69.03-8.85c-13.1,0.55-24.05,2.71-31.88,4.72
		c0,0-1.72-1.04-3.24-2.61c-13.47-13.97,10.67-74.89,2.73-133.88c-2.62-19.47-9.41-43.72,3.25-68.72c2.35-4.64,4.8-8.17,6.44-10.37
		l59.82-31.55L411.89,334.48z"/>
	<path class="st7" d="M427.58,253.71c1.74,0.8,20.76,66.88-15.73,65.49l-0.63,29.96c0,0-30.83,18.81-41.52-20.9l0.63-41.8
		C370.33,286.45,374.73,229.32,427.58,253.71z"/>
	<path class="st24" d="M444.57,238.38c0,0-12.58,20.2-27.68,20.9c-15.1,0.7-18.24,0.7-18.24,6.97c0,3.77-0.46,6.54-0.82,8.14
		c-0.13,0.56-0.88,0.66-1.14,0.15c-1.94-3.81-7.65-13.37-13.77-8.29c-7.55,6.27,1.89,15.33,1.89,15.33s-3.15,25.78-12.58,22.99
		c-9.44-2.79-23.28-53.65-17.62-66.19c5.66-12.54,36.49-20.9,42.15-25.78c5.66-4.88,11.32-10.45,13.84-4.88
		c2.52,5.57,7.55,0.7,15.73,4.18s3.77,16.72,10.07,16.72S445.19,234.9,444.57,238.38z"/>
	<path class="st7" d="M444.48,439.47c7.53-4.21,79.56-59.26,98.24-85.26c0.28-0.4,0.88-0.35,1.09,0.09l30.79,62.75
		c0.11,0.23,0.09,0.5-0.08,0.69c-4.54,5.5-67.12,80.62-100.58,83.94c-0.27,0.03-0.53-0.12-0.64-0.37l-29.09-61
		C444.07,440.01,444.18,439.64,444.48,439.47z"/>
	<path class="st7" d="M451.06,485.9l25.16-4.18c0,0,15.73-31.35,20.76-30.65c5.03,0.7,1.26,27.17,1.26,27.17s18.87,2.09,20.76-1.39
		c1.89-3.48,12.58-20.2,13.84-14.63c0.89,3.96-0.43,14.6-1.28,20.43c-0.37,2.54-1.56,4.87-3.41,6.65l-19.09,18.35
		c-1.29,1.24-3.03,1.91-4.82,1.85l-17.34-0.6l-38.38,16.02L451.06,485.9z"/>
	<path class="st25" d="M347.05,388.17L347.05,388.17c-1.64,0,13.26,70.08,17.27,88.8c0.57,2.67,2.9,4.57,5.61,4.59l80.01,0.65
		c0.86,0.01,1.55,0.7,1.57,1.57l0.58,40.66c0.01,0.95-0.69,1.75-1.63,1.85l-124.17,13.06l-23.91-133.07l0.7-0.29"/>
	<path class="st26" d="M301.43,567.79c12.88-4.48,26.59-7.89,40.31-7.26c8.49,0.39,16.69,3.07,24.95,4.89
		c18.08,3.98,36.4,7.34,54.82,9.23c6,0.62,12.06,1.1,18.1,0.99c3.72-0.07,8.05-0.11,11.47-1.83"/>
	<path class="st9" d="M351.59,477.61c0,0,4.8-1.61,15.37,3.54"/>
	<path class="st24" d="M384.73,271.16c0,0,0.28,3.65,3.9,6.17"/>
	<line class="st7" x1="535.78" y1="373.35" x2="561.4" y2="419.95"/>
	<line class="st7" x1="527.01" y1="382.62" x2="551.99" y2="426.08"/>
	<line class="st7" x1="518.24" y1="392.58" x2="542.57" y2="432.9"/>
	<line class="st7" x1="510.46" y1="405.34" x2="528.73" y2="434.1"/>
	<line class="st7" x1="504.29" y1="417.31" x2="515.3" y2="434.84"/>
	<line class="st7" x1="462.12" y1="442.24" x2="476.28" y2="472.48"/>
	<line class="st7" x1="472.14" y1="441.54" x2="481.47" y2="461.36"/>
</g>
<g id="girl">
	<path class="st27" d="M999.09,441.96c-0.83,0.28-13.32,5.31-13.12,30.27c0,0.12,0.15,0.19,0.23,0.1
		c1.77-1.76,13.32-13.88,13.46-30.09C999.66,442.22,999.11,441.96,999.09,441.96z"/>
	
		<rect x="852.7" y="447.88" transform="matrix(0.6137 -0.7896 0.7896 0.6137 -27.2323 852.6835)" class="st28" width="10.03" height="12.59"/>
	<path class="st27" d="M931.54,484c-1.94,10.03,1.07,19.9,4.83,20.64c3.76,0.74,8.05-6.23,9.86-15.74
		c1.97-10.39-0.61-20.97-4.37-21.71C938.09,466.45,933.48,473.98,931.54,484z"/>
	<path class="st7" d="M940.36,504.45l-20.65-8.44c-1.57-0.64-3.34-0.53-4.81,0.3c-3.8,2.15-11.08,6.09-12.3,5.4l-26.01-34.49
		c0,0-13.48-6.02-10.51-11.7c2.44-4.67,20.3-5.01,26.56-4.99c1.4,0.01,2.81,0.38,4.11,1.09l26.87,14.75c0.73,0.4,1.5,0.65,2.29,0.75
		c4.57,0.54,20.85,2.55,21.2,3.94C947.52,472.66,947.27,498.13,940.36,504.45z"/>
	<path class="st7" d="M954.02,425.87l1.32-18.04c0,0,4.49-4.28,6.61,3.36s1.59,12.54,4.76,15.6c3.17,3.06,26.96,16.52,26.96,16.52
		l7.14,3.98l-4.49,24.47l-24.05-9.79l-28.81-0.31c0,0-8.41-16.41-0.71-33.85c0.68-1.55,2.27-2.48,3.95-2.38L954.02,425.87z"/>
	<path class="st29" d="M1062.84,281.67c0,0-9.18,70.64-15.08,83.15l-5.5,9.76c0,0,49.39,15.56,61.33,3.56l5.01-113.44
		C1108.6,264.71,1062.95,264.87,1062.84,281.67z"/>
	<path class="st30" d="M1208.67,1070.2l-0.55,27.07l69.09,0.37c0,0,6.49-8.91,0.59-10.32c-5.89-1.41-30.33-8.42-34-16.88
		L1208.67,1070.2z"/>
	<polygon class="st7" points="1204.93,1037.19 1208.52,1070.63 1243.65,1070.45 1235.53,1031.24 	"/>
	
		<rect x="1051.76" y="1034.65" transform="matrix(1 2.809939e-03 -2.809939e-03 1 2.9629 -2.9991)" class="st7" width="34.05" height="36.59"/>
	<path class="st31" d="M1046.64,528.99c-0.96,6.71-2.29,16.49-3.62,28.31c-7.75,68.83-5.5,116.9-4.02,175.57
		c0.35,13.96-1.56-59.39,1.69,157.18c0.92,61.63,1.75,112.22,2.31,146.2c0.02,1.17,0.71,2.2,1.75,2.6
		c4.03,1.54,9.22,3.63,15.45,3.77c9.72,0.22,28.91,1.13,31.04-5.68c0,0,10.11-19.5,13.48-30.84c2.58-8.69-13.4,2.65-10.7-5.4
		c2.7-8.05,16.14-26.81,8.13-33.54c-8.02-6.74-9.37-1.37-9.34-10.77c0.03-9.4,3.58-327.58,11.61-323.53
		c8.02,4.05,71.95,322.06,71.4,331.82c-0.63,11.06,2,19.87,3.97,18.81c13.32-7.19,6.68,5.39,5.31,16.13
		c-1.2,9.39,1.72,13.66,7.85,11.9c1.57-0.45,3.19,0.52,3.53,2.11l5.92,27.65c8.58,1.33,15.79,1.66,21.15,1.66
		c12.21,0,9.98-0.31,15.62-0.96c5.79-0.67,7.42-1.84,6.4-7.72c-1.17-6.76-2.39-13.5-3.59-20.26c-2.29-12.95-4.58-25.9-6.86-38.85
		c-4.19-23.74-8.36-47.48-12.52-71.22c-6.89-39.31-13.73-78.63-20.49-117.96c-5.04-29.35-10.04-58.7-14.94-88.08
		c-3.41-20.49-6.78-40.99-10.01-61.5c-2-12.73-3.98-25.47-5.71-38.24c-0.82-6.05-1.78-12.16-2.04-18.27
		c-0.01-0.31-0.02-0.62-0.03-0.93c-0.02-1.83,0.1-13.32-2.89-28.31c-2.11-10.59-4.97-18.87-6.81-23.69
		c-19.2-0.01-38.73,0.15-58.58,0.53C1082.65,527.82,1064.5,528.33,1046.64,528.99z"/>
	<path class="st7" d="M1069.36,360.66c0,0-24.29-1.81-27.08,3.78c-2.79,5.59-50.22,113.17-55.07,113.16
		c-4.85-0.01-44.33-11.32-44.33-11.32s8.54,29.01-7.7,38.93c0,0,62.27,14.13,73.36,12.06c10.49-1.95,36.95-48.01,39.98-51.57
		c0.07-0.08-2.94,32.2-2.97,32.3l-5.69,19.3c-0.05,0.19,0,0.4,0.14,0.55l4.96,5.03c0.19,0.2,0.21,0.51,0.04,0.73l-4.52,5.83
		c-0.03,0.04-0.03,0.09,0.01,0.13l2.7,2.74c0,0,74.84,9.3,115.77-3.17l5.39-5.41c0.41-0.41,0.27-1.11-0.27-1.33l-5.37-2.18
		c-0.21-0.09-0.28-0.35-0.13-0.53l5.85-7.04c0.52-0.63,0.79-1.43,0.75-2.25c-0.45-9.13-0.96-64.9,13.55-110.61l7.85-33.48
		l-54.15-18.41l-8.34,6.27l-44.39,11.77L1069.36,360.66z"/>
	<path class="st30" d="M1086.1,1070.44l1.04,27.06l-69.87-0.2c0,0-5.84-6.94,0.02-8.46c5.87-1.52,30.17-8.97,33.69-17.51
		L1086.1,1070.44z"/>
	<path class="st7" d="M1068.38,272.84c0,0-8.74,49.41,1.65,58.1c10.39,8.69,21.44,4.31,21.75,8.84s-0.07,19.46-0.07,19.46
		l-22.36,1.43c0,0-6.29,21.8-3.08,25.5s24.48,9.07,36.07,5.75s24.09-20.51,24.09-20.51l-8.23-4.45l24.12-70.09l-32.9-39.91
		L1068.38,272.84z"/>
	<path class="st32" d="M1122.16,305.02c0,0-2.33,8.87-9.12,9.71"/>
	<path class="st33" d="M1055.34,390.44c-3.38,6.23-6.68,12.5-9.93,18.8c-2.44,4.73-4.91,9.45-7.26,14.22
		c-2.05,4.18-5.36,9.16-5.47,13.96c-0.07,2.94,2.15,5.82,3.53,8.3c1.65,2.96,3.3,5.91,4.78,8.96c3.25,6.71,6.01,14.17,5.49,21.77"/>
	<path class="st2" d="M1152.52,353.74c0,0,37.57,8.03,37.54,17.66s-89.02,132.8-108.1,135.58c-19.08,2.78-95.29-34.24-95.29-34.24
		s14.08-17.51,12.99-30.54l59.07,20.05c0.87,0.3,1.84-0.01,2.38-0.76C1069.77,449.49,1137.81,355.82,1152.52,353.74z"/>
	<path class="st33" d="M1044.96,522.88c0,0,63.04,10.75,111.66-2.04"/>
	<line class="st11" x1="1108.24" y1="555.08" x2="1104.33" y2="625.99"/>
	<line class="st11" x1="1096.81" y1="567.3" x2="1101.72" y2="623.56"/>
	<path class="st11" d="M1061.27,536.15c0,0-2.33,28.97-17.55,34.61"/>
	<path class="st11" d="M1125.39,537.15c0,0,8.79,27.32,25.47,31.52"/>
	<path class="st33" d="M1058.73,462.25c0,0,7.35,0.99,11.21,6.03"/>
	<path class="st33" d="M986.59,478.47c0,0,3.57-0.05,8.54,6.1"/>
	<path class="st34" d="M1104.24,269.29c0.63-1.3-22.85,25.3-40.87,17.52l-2.43-1.14c-0.3-0.14-0.27-0.58,0.05-0.67
		c3.19-0.88,13.49-3.92,15.64-6.87c2.55-3.5-1.9-3.02-7.19-1.37s-7.86,3.7-13.21-0.44c-5.35-4.14,1.19-18.67,9.21-25.88
		c7.91-7.11,35.71-14.85,52.32-5.63c0.01,0.01,0.03,0.02,0.04,0.02l8.87,6.22c0.05,0.03,0.09,0.05,0.15,0.06
		c1.1,0.14,13.57,1.9,19.56,11.66c6.12,9.96,18.55,103.78,19.17,108.54c0.02,0.12-0.03,0.24-0.12,0.32
		c-12.82,11.22-23.88,14.33-31.85,14.98c-14.12,1.15-32.42-4.32-34.81-5.06c-0.16-0.05-0.26-0.2-0.24-0.37
		c0.03-0.49,0.1-1.44,0.1-1.58c0-0.02,0-0.02,0-0.03c0.22-1.05,11.61-55.79,11.63-55.87c0.14-0.65,10.62-4.77,11.78-5.62
		c3.96-2.92,8.55-9.13,7.15-14.44c-1.16-4.39-6.51-5.55-10.37-4.6c-5.74,1.41-8.96,7.39-10.12,12.87c-0.06,0.28-0.4,0.39-0.6,0.18
		C1105.41,309.2,1092.83,293.08,1104.24,269.29z"/>
	<path class="st35" d="M808.85,354.89c-33.66,0-60.95,26.77-60.95,59.78c0,33.01,27.29,59.77,60.95,59.77
		c17.09,0,32.53-6.9,43.6-18.01c2.37-2.38,4.54-4.94,6.47-7.68c6.86-9.67,10.88-21.42,10.88-34.08
		C869.8,381.66,842.51,354.89,808.85,354.89z M808.95,470.11c-30.46,0-55.16-24.7-55.16-55.16s24.7-55.15,55.16-55.15
		s55.15,24.69,55.15,55.15S839.41,470.11,808.95,470.11z"/>
	<path class="st36" d="M921.49,494.11l-5.17,7.28c-0.76,1.06-2.23,1.31-3.29,0.56l-54.12-38.42l7.6-10.7l54.56,38.73
		C921.88,492.14,922.07,493.28,921.49,494.11z"/>
	<path class="st7" d="M876.36,478.75l2.67,8.98c0.4,1.36,1.33,2.5,2.51,3.11l19.24,9.92c1.17,0.6,2.46,0.69,3.59,0.24
		c3.44-1.37,10.62-4.37,10.21-5.28c-0.54-1.19-8.08-12.82-8.48-13.71c-0.33-0.73-12.65-7.09-17.05-9.34
		c-0.98-0.5-2.08-0.54-3.01-0.11l-8.87,4.09C876.44,476.99,876.1,477.88,876.36,478.75z"/>
	<path class="st7" d="M889.64,477.44c0,0-5.22,3.65-5.74,5.74s0,8.09,0,8.09"/>
	<path class="st7" d="M896.16,482.65c0,0-4.96,3.65-5.22,4.96c-0.26,1.3,0.52,8.09,0.52,8.09"/>
	<path class="st7" d="M903.73,488.13c0,0-4.7,1.3-4.7,2.87s0,8.35,0,8.35"/>
	<polygon class="st37" points="836.39,404.95 806.79,431.4 801.75,425.6 801.85,425.51 787.55,408.31 793.6,405.11 806.94,421.02 
		830.51,400.23 	"/>
</g>
<line class="st11" x1="196.22" y1="1086.82" x2="1427.07" y2="1093.22"/>
</svg>
